<svg width="432" height="254" viewBox="0 0 432 254" fill="none" xmlns="http://www.w3.org/2000/svg">
<path d="M0 8C0 3.58172 3.58172 0 8 0H424C428.418 0 432 3.58172 432 8V246C432 250.418 428.418 254 424 254H8C3.58172 254 0 250.418 0 246V8Z" fill="url(#paint0_linear_50_2537)"/>
<g filter="url(#filter0_bd_50_2537)">
<path d="M58 52C58 40.9543 66.9543 32 78 32H354C365.046 32 374 40.9543 374 52V202C374 213.046 365.046 222 354 222H78C66.9543 222 58 213.046 58 202V52Z" fill="url(#paint1_linear_50_2537)"/>
<path d="M58.5 52C58.5 41.2305 67.2304 32.5 78 32.5H354C364.77 32.5 373.5 41.2304 373.5 52V202C373.5 212.77 364.77 221.5 354 221.5H78C67.2304 221.5 58.5 212.77 58.5 202V52Z" stroke="url(#paint2_linear_50_2537)" stroke-opacity="0.3"/>
<path d="M313 178C313 175.791 314.791 174 317 174H354.333C356.542 174 358.333 175.791 358.333 178V202C358.333 204.209 356.542 206 354.333 206H317C314.791 206 313 204.209 313 202V178Z" fill="white" fill-opacity="0.1"/>
<path opacity="0.5" fill-rule="evenodd" clip-rule="evenodd" d="M335.905 196.439C334.327 197.77 332.279 198.573 330.041 198.573C325.048 198.573 321 194.574 321 189.64C321 184.706 325.048 180.707 330.041 180.707C332.279 180.707 334.327 181.51 335.905 182.841C337.484 181.51 339.532 180.707 341.77 180.707C346.763 180.707 350.811 184.706 350.811 189.64C350.811 194.574 346.763 198.573 341.77 198.573C339.532 198.573 337.484 197.77 335.905 196.439Z" fill="white"/>
<path opacity="0.5" fill-rule="evenodd" clip-rule="evenodd" d="M335.905 196.439C337.849 194.801 339.082 192.363 339.082 189.64C339.082 186.917 337.849 184.479 335.905 182.841C337.484 181.51 339.532 180.707 341.77 180.707C346.763 180.707 350.811 184.706 350.811 189.64C350.811 194.574 346.763 198.573 341.77 198.573C339.532 198.573 337.484 197.77 335.905 196.439Z" fill="white"/>
<path fill-rule="evenodd" clip-rule="evenodd" d="M335.905 196.439C337.849 194.801 339.082 192.363 339.082 189.64C339.082 186.917 337.849 184.479 335.905 182.841C333.961 184.479 332.729 186.917 332.729 189.64C332.729 192.363 333.961 194.801 335.905 196.439Z" fill="white"/>
<path d="M77.128 201V191.32L74.96 192.64V190.776L77.128 189.48H78.832V201H77.128ZM83.95 200.992L83.958 199.504L88.974 195.008C89.3793 194.651 89.654 194.309 89.798 193.984C89.9473 193.659 90.022 193.333 90.022 193.008C90.022 192.597 89.9313 192.229 89.75 191.904C89.5687 191.573 89.318 191.312 88.998 191.12C88.678 190.928 88.31 190.832 87.894 190.832C87.4673 190.832 87.086 190.933 86.75 191.136C86.4193 191.333 86.1607 191.597 85.974 191.928C85.7873 192.259 85.6967 192.616 85.702 193H83.99C83.99 192.253 84.158 191.6 84.494 191.04C84.8353 190.475 85.302 190.035 85.894 189.72C86.486 189.4 87.1633 189.24 87.926 189.24C88.6513 189.24 89.302 189.405 89.878 189.736C90.454 190.061 90.9073 190.509 91.238 191.08C91.574 191.651 91.742 192.301 91.742 193.032C91.742 193.56 91.6727 194.008 91.534 194.376C91.3953 194.744 91.1873 195.085 90.91 195.4C90.6327 195.715 90.286 196.056 89.87 196.424L85.998 199.88L85.814 199.4H91.742V200.992H83.95ZM99.2846 201.216C98.714 201.216 98.178 201.109 97.6766 200.896C97.1753 200.677 96.7406 200.368 96.3726 199.968C96.01 199.568 95.746 199.096 95.5806 198.552L97.1966 198.104C97.3513 198.6 97.6206 198.981 98.0046 199.248C98.3886 199.509 98.8153 199.637 99.2846 199.632C99.706 199.627 100.077 199.528 100.397 199.336C100.717 199.144 100.967 198.885 101.149 198.56C101.33 198.229 101.421 197.851 101.421 197.424C101.421 196.784 101.221 196.256 100.821 195.84C100.426 195.424 99.9086 195.216 99.2686 195.216C99.0873 195.216 98.9006 195.243 98.7086 195.296C98.522 195.349 98.346 195.419 98.1806 195.504L97.3966 194.184L101.461 190.592L101.637 191.072H96.0366V189.48H102.965V191.072L99.5886 194.32L99.5726 193.776C100.298 193.776 100.927 193.939 101.461 194.264C101.994 194.584 102.405 195.021 102.693 195.576C102.986 196.125 103.133 196.741 103.133 197.424C103.133 198.16 102.959 198.813 102.613 199.384C102.271 199.955 101.81 200.403 101.229 200.728C100.653 201.053 100.005 201.216 99.2846 201.216ZM112.497 201V198.992H107.297V197.408L111.041 189.48H112.953L109.209 197.408H112.497V194.288H114.193V197.408H115.337V198.992H114.193V201H112.497ZM127.269 201V191.32L125.101 192.64V190.776L127.269 189.48H128.973V201H127.269ZM134.091 200.992L134.099 199.504L139.115 195.008C139.52 194.651 139.795 194.309 139.939 193.984C140.088 193.659 140.163 193.333 140.163 193.008C140.163 192.597 140.072 192.229 139.891 191.904C139.709 191.573 139.459 191.312 139.139 191.12C138.819 190.928 138.451 190.832 138.035 190.832C137.608 190.832 137.227 190.933 136.891 191.136C136.56 191.333 136.301 191.597 136.115 191.928C135.928 192.259 135.837 192.616 135.843 193H134.131C134.131 192.253 134.299 191.6 134.635 191.04C134.976 190.475 135.443 190.035 136.035 189.72C136.627 189.4 137.304 189.24 138.067 189.24C138.792 189.24 139.443 189.405 140.019 189.736C140.595 190.061 141.048 190.509 141.379 191.08C141.715 191.651 141.883 192.301 141.883 193.032C141.883 193.56 141.813 194.008 141.675 194.376C141.536 194.744 141.328 195.085 141.051 195.4C140.773 195.715 140.427 196.056 140.011 196.424L136.139 199.88L135.955 199.4H141.883V200.992H134.091ZM149.425 201.216C148.855 201.216 148.319 201.109 147.817 200.896C147.316 200.677 146.881 200.368 146.513 199.968C146.151 199.568 145.887 199.096 145.721 198.552L147.337 198.104C147.492 198.6 147.761 198.981 148.145 199.248C148.529 199.509 148.956 199.637 149.425 199.632C149.847 199.627 150.217 199.528 150.537 199.336C150.857 199.144 151.108 198.885 151.289 198.56C151.471 198.229 151.561 197.851 151.561 197.424C151.561 196.784 151.361 196.256 150.961 195.84C150.567 195.424 150.049 195.216 149.409 195.216C149.228 195.216 149.041 195.243 148.849 195.296C148.663 195.349 148.487 195.419 148.321 195.504L147.537 194.184L151.601 190.592L151.777 191.072H146.177V189.48H153.105V191.072L149.729 194.32L149.713 193.776C150.439 193.776 151.068 193.939 151.601 194.264C152.135 194.584 152.545 195.021 152.833 195.576C153.127 196.125 153.273 196.741 153.273 197.424C153.273 198.16 153.1 198.813 152.753 199.384C152.412 199.955 151.951 200.403 151.369 200.728C150.793 201.053 150.145 201.216 149.425 201.216ZM162.637 201V198.992H157.437V197.408L161.181 189.48H163.093L159.349 197.408H162.637V194.288H164.333V197.408H165.477V198.992H164.333V201H162.637ZM177.409 201V191.32L175.241 192.64V190.776L177.409 189.48H179.113V201H177.409ZM184.231 200.992L184.239 199.504L189.255 195.008C189.661 194.651 189.935 194.309 190.079 193.984C190.229 193.659 190.303 193.333 190.303 193.008C190.303 192.597 190.213 192.229 190.031 191.904C189.85 191.573 189.599 191.312 189.279 191.12C188.959 190.928 188.591 190.832 188.175 190.832C187.749 190.832 187.367 190.933 187.031 191.136C186.701 191.333 186.442 191.597 186.255 191.928C186.069 192.259 185.978 192.616 185.983 193H184.271C184.271 192.253 184.439 191.6 184.775 191.04C185.117 190.475 185.583 190.035 186.175 189.72C186.767 189.4 187.445 189.24 188.207 189.24C188.933 189.24 189.583 189.405 190.159 189.736C190.735 190.061 191.189 190.509 191.519 191.08C191.855 191.651 192.023 192.301 192.023 193.032C192.023 193.56 191.954 194.008 191.815 194.376C191.677 194.744 191.469 195.085 191.191 195.4C190.914 195.715 190.567 196.056 190.151 196.424L186.279 199.88L186.095 199.4H192.023V200.992H184.231ZM199.566 201.216C198.995 201.216 198.459 201.109 197.958 200.896C197.457 200.677 197.022 200.368 196.654 199.968C196.291 199.568 196.027 199.096 195.862 198.552L197.478 198.104C197.633 198.6 197.902 198.981 198.286 199.248C198.67 199.509 199.097 199.637 199.566 199.632C199.987 199.627 200.358 199.528 200.678 199.336C200.998 199.144 201.249 198.885 201.43 198.56C201.611 198.229 201.702 197.851 201.702 197.424C201.702 196.784 201.502 196.256 201.102 195.84C200.707 195.424 200.19 195.216 199.55 195.216C199.369 195.216 199.182 195.243 198.99 195.296C198.803 195.349 198.627 195.419 198.462 195.504L197.678 194.184L201.742 190.592L201.918 191.072H196.318V189.48H203.246V191.072L199.87 194.32L199.854 193.776C200.579 193.776 201.209 193.939 201.742 194.264C202.275 194.584 202.686 195.021 202.974 195.576C203.267 196.125 203.414 196.741 203.414 197.424C203.414 198.16 203.241 198.813 202.894 199.384C202.553 199.955 202.091 200.403 201.51 200.728C200.934 201.053 200.286 201.216 199.566 201.216ZM212.778 201V198.992H207.578V197.408L211.322 189.48H213.234L209.49 197.408H212.778V194.288H214.474V197.408H215.618V198.992H214.474V201H212.778ZM227.55 201V191.32L225.382 192.64V190.776L227.55 189.48H229.254V201H227.55ZM234.372 200.992L234.38 199.504L239.396 195.008C239.801 194.651 240.076 194.309 240.22 193.984C240.369 193.659 240.444 193.333 240.444 193.008C240.444 192.597 240.353 192.229 240.172 191.904C239.991 191.573 239.74 191.312 239.42 191.12C239.1 190.928 238.732 190.832 238.316 190.832C237.889 190.832 237.508 190.933 237.172 191.136C236.841 191.333 236.583 191.597 236.396 191.928C236.209 192.259 236.119 192.616 236.124 193H234.412C234.412 192.253 234.58 191.6 234.916 191.04C235.257 190.475 235.724 190.035 236.316 189.72C236.908 189.4 237.585 189.24 238.348 189.24C239.073 189.24 239.724 189.405 240.3 189.736C240.876 190.061 241.329 190.509 241.66 191.08C241.996 191.651 242.164 192.301 242.164 193.032C242.164 193.56 242.095 194.008 241.956 194.376C241.817 194.744 241.609 195.085 241.332 195.4C241.055 195.715 240.708 196.056 240.292 196.424L236.42 199.88L236.236 199.4H242.164V200.992H234.372ZM249.707 201.216C249.136 201.216 248.6 201.109 248.099 200.896C247.597 200.677 247.163 200.368 246.795 199.968C246.432 199.568 246.168 199.096 246.003 198.552L247.619 198.104C247.773 198.6 248.043 198.981 248.427 199.248C248.811 199.509 249.237 199.637 249.707 199.632C250.128 199.627 250.499 199.528 250.819 199.336C251.139 199.144 251.389 198.885 251.571 198.56C251.752 198.229 251.843 197.851 251.843 197.424C251.843 196.784 251.643 196.256 251.243 195.84C250.848 195.424 250.331 195.216 249.691 195.216C249.509 195.216 249.323 195.243 249.131 195.296C248.944 195.349 248.768 195.419 248.603 195.504L247.819 194.184L251.883 190.592L252.059 191.072H246.459V189.48H253.387V191.072L250.011 194.32L249.995 193.776C250.72 193.776 251.349 193.939 251.883 194.264C252.416 194.584 252.827 195.021 253.115 195.576C253.408 196.125 253.555 196.741 253.555 197.424C253.555 198.16 253.381 198.813 253.035 199.384C252.693 199.955 252.232 200.403 251.651 200.728C251.075 201.053 250.427 201.216 249.707 201.216ZM262.919 201V198.992H257.719V197.408L261.463 189.48H263.375L259.631 197.408H262.919V194.288H264.615V197.408H265.759V198.992H264.615V201H262.919Z" fill="white"/>
<path d="M74.84 173V164.36H79.958V165.614H76.094V168.05H79.238V169.31H76.094V173H74.84ZM81.7592 173V164.36H83.0132V173H81.7592ZM85.415 173V164.36H88.907C88.991 164.36 89.095 164.364 89.219 164.372C89.343 164.376 89.461 164.388 89.573 164.408C90.053 164.484 90.453 164.648 90.773 164.9C91.097 165.152 91.339 165.47 91.499 165.854C91.659 166.238 91.739 166.662 91.739 167.126C91.739 167.814 91.563 168.408 91.211 168.908C90.859 169.404 90.331 169.714 89.627 169.838L89.117 169.898H86.669V173H85.415ZM90.467 173L88.763 169.484L90.029 169.16L91.901 173H90.467ZM86.669 168.71H88.859C88.939 168.71 89.027 168.706 89.123 168.698C89.223 168.69 89.317 168.676 89.405 168.656C89.661 168.596 89.867 168.486 90.023 168.326C90.179 168.162 90.291 167.974 90.359 167.762C90.427 167.55 90.461 167.338 90.461 167.126C90.461 166.914 90.427 166.704 90.359 166.496C90.291 166.284 90.179 166.098 90.023 165.938C89.867 165.774 89.661 165.662 89.405 165.602C89.317 165.578 89.223 165.562 89.123 165.554C89.027 165.546 88.939 165.542 88.859 165.542H86.669V168.71ZM96.9517 173.18C96.3317 173.18 95.7717 173.074 95.2717 172.862C94.7757 172.646 94.3657 172.34 94.0417 171.944C93.7217 171.544 93.5137 171.07 93.4177 170.522L94.7257 170.324C94.8577 170.852 95.1337 171.264 95.5537 171.56C95.9737 171.852 96.4637 171.998 97.0237 171.998C97.3717 171.998 97.6917 171.944 97.9837 171.836C98.2757 171.724 98.5097 171.566 98.6857 171.362C98.8657 171.154 98.9557 170.906 98.9557 170.618C98.9557 170.462 98.9277 170.324 98.8717 170.204C98.8197 170.084 98.7457 169.98 98.6497 169.892C98.5577 169.8 98.4437 169.722 98.3077 169.658C98.1757 169.59 98.0297 169.532 97.8697 169.484L95.6557 168.83C95.4397 168.766 95.2197 168.684 94.9957 168.584C94.7717 168.48 94.5657 168.346 94.3777 168.182C94.1937 168.014 94.0437 167.808 93.9277 167.564C93.8117 167.316 93.7537 167.016 93.7537 166.664C93.7537 166.132 93.8897 165.682 94.1617 165.314C94.4377 164.942 94.8097 164.662 95.2777 164.474C95.7457 164.282 96.2697 164.186 96.8497 164.186C97.4337 164.194 97.9557 164.298 98.4157 164.498C98.8797 164.698 99.2637 164.986 99.5677 165.362C99.8757 165.734 100.088 166.186 100.204 166.718L98.8597 166.946C98.7997 166.622 98.6717 166.344 98.4757 166.112C98.2797 165.876 98.0397 165.696 97.7557 165.572C97.4717 165.444 97.1637 165.378 96.8317 165.374C96.5117 165.366 96.2177 165.414 95.9497 165.518C95.6857 165.622 95.4737 165.768 95.3137 165.956C95.1577 166.144 95.0797 166.36 95.0797 166.604C95.0797 166.844 95.1497 167.038 95.2897 167.186C95.4297 167.334 95.6017 167.452 95.8057 167.54C96.0137 167.624 96.2197 167.694 96.4237 167.75L98.0197 168.2C98.2197 168.256 98.4457 168.332 98.6977 168.428C98.9537 168.52 99.1997 168.65 99.4357 168.818C99.6757 168.986 99.8737 169.21 100.03 169.49C100.186 169.766 100.264 170.114 100.264 170.534C100.264 170.97 100.176 171.354 99.9997 171.686C99.8237 172.014 99.5817 172.29 99.2737 172.514C98.9697 172.734 98.6177 172.9 98.2177 173.012C97.8177 173.124 97.3957 173.18 96.9517 173.18ZM104.296 173V165.542H101.422V164.36H108.424V165.542H105.55V173H104.296ZM112.744 173V164.36H113.998V171.818H117.91V173H112.744ZM118.928 173L121.736 164.36H123.542L126.35 173H125.048L122.462 165.116H122.786L120.23 173H118.928ZM120.386 171.05V169.874H124.898V171.05H120.386ZM130.924 173.18C130.304 173.18 129.744 173.074 129.244 172.862C128.748 172.646 128.338 172.34 128.014 171.944C127.694 171.544 127.486 171.07 127.39 170.522L128.698 170.324C128.83 170.852 129.106 171.264 129.526 171.56C129.946 171.852 130.436 171.998 130.996 171.998C131.344 171.998 131.664 171.944 131.956 171.836C132.248 171.724 132.482 171.566 132.658 171.362C132.838 171.154 132.928 170.906 132.928 170.618C132.928 170.462 132.9 170.324 132.844 170.204C132.792 170.084 132.718 169.98 132.622 169.892C132.53 169.8 132.416 169.722 132.28 169.658C132.148 169.59 132.002 169.532 131.842 169.484L129.628 168.83C129.412 168.766 129.192 168.684 128.968 168.584C128.744 168.48 128.538 168.346 128.35 168.182C128.166 168.014 128.016 167.808 127.9 167.564C127.784 167.316 127.726 167.016 127.726 166.664C127.726 166.132 127.862 165.682 128.134 165.314C128.41 164.942 128.782 164.662 129.25 164.474C129.718 164.282 130.242 164.186 130.822 164.186C131.406 164.194 131.928 164.298 132.388 164.498C132.852 164.698 133.236 164.986 133.54 165.362C133.848 165.734 134.06 166.186 134.176 166.718L132.832 166.946C132.772 166.622 132.644 166.344 132.448 166.112C132.252 165.876 132.012 165.696 131.728 165.572C131.444 165.444 131.136 165.378 130.804 165.374C130.484 165.366 130.19 165.414 129.922 165.518C129.658 165.622 129.446 165.768 129.286 165.956C129.13 166.144 129.052 166.36 129.052 166.604C129.052 166.844 129.122 167.038 129.262 167.186C129.402 167.334 129.574 167.452 129.778 167.54C129.986 167.624 130.192 167.694 130.396 167.75L131.992 168.2C132.192 168.256 132.418 168.332 132.67 168.428C132.926 168.52 133.172 168.65 133.408 168.818C133.648 168.986 133.846 169.21 134.002 169.49C134.158 169.766 134.236 170.114 134.236 170.534C134.236 170.97 134.148 171.354 133.972 171.686C133.796 172.014 133.554 172.29 133.246 172.514C132.942 172.734 132.59 172.9 132.19 173.012C131.79 173.124 131.368 173.18 130.924 173.18ZM138.269 173V165.542H135.395V164.36H142.397V165.542H139.523V173H138.269ZM143.957 173V164.36H145.229L149.483 170.78V164.36H150.755V173H149.483L145.229 166.574V173H143.957ZM152.43 173L155.238 164.36H157.044L159.852 173H158.55L155.964 165.116H156.288L153.732 173H152.43ZM153.888 171.05V169.874H158.4V171.05H153.888ZM161.528 173V164.36H162.662L165.794 170.858L168.908 164.36H170.054V172.994H168.866V167.084L166.076 173H165.506L162.71 167.084V173H161.528ZM172.335 173V164.36H177.855V165.542H173.589V167.966H177.135V169.148H173.589V171.818H177.855V173H172.335Z" fill="white"/>
<path d="M234.245 173.18C233.657 173.18 233.137 173.052 232.685 172.796C232.233 172.536 231.877 172.18 231.617 171.728C231.361 171.276 231.233 170.756 231.233 170.168V167.192C231.233 166.604 231.361 166.084 231.617 165.632C231.877 165.18 232.233 164.826 232.685 164.57C233.137 164.31 233.657 164.18 234.245 164.18C234.833 164.18 235.353 164.31 235.805 164.57C236.257 164.826 236.611 165.18 236.867 165.632C237.127 166.084 237.257 166.604 237.257 167.192V170.168C237.257 170.756 237.127 171.276 236.867 171.728C236.611 172.18 236.257 172.536 235.805 172.796C235.353 173.052 234.833 173.18 234.245 173.18ZM234.245 171.98C234.565 171.98 234.855 171.904 235.115 171.752C235.379 171.596 235.589 171.388 235.745 171.128C235.901 170.864 235.979 170.57 235.979 170.246V167.102C235.979 166.782 235.901 166.492 235.745 166.232C235.589 165.968 235.379 165.76 235.115 165.608C234.855 165.452 234.565 165.374 234.245 165.374C233.925 165.374 233.633 165.452 233.369 165.608C233.109 165.76 232.901 165.968 232.745 166.232C232.589 166.492 232.511 166.782 232.511 167.102V170.246C232.511 170.57 232.589 170.864 232.745 171.128C232.901 171.388 233.109 171.596 233.369 171.752C233.633 171.904 233.925 171.98 234.245 171.98ZM242.502 173.18C241.942 173.18 241.438 173.048 240.99 172.784C240.542 172.516 240.186 172.15 239.922 171.686C239.662 171.222 239.532 170.694 239.532 170.102V167.348C239.532 166.72 239.662 166.168 239.922 165.692C240.186 165.216 240.55 164.846 241.014 164.582C241.482 164.318 242.02 164.186 242.628 164.186C243.084 164.186 243.512 164.272 243.912 164.444C244.312 164.616 244.658 164.872 244.95 165.212L244.032 166.07C243.868 165.858 243.662 165.69 243.414 165.566C243.17 165.438 242.908 165.374 242.628 165.374C242.268 165.374 241.952 165.46 241.68 165.632C241.408 165.8 241.194 166.022 241.038 166.298C240.886 166.574 240.81 166.87 240.81 167.186V168.77L240.564 168.494C240.812 168.17 241.12 167.914 241.488 167.726C241.856 167.538 242.25 167.444 242.67 167.444C243.206 167.444 243.684 167.57 244.104 167.822C244.528 168.07 244.86 168.408 245.1 168.836C245.344 169.264 245.466 169.746 245.466 170.282C245.466 170.822 245.33 171.312 245.058 171.752C244.79 172.188 244.43 172.536 243.978 172.796C243.53 173.052 243.038 173.18 242.502 173.18ZM242.502 171.974C242.814 171.974 243.098 171.898 243.354 171.746C243.61 171.594 243.814 171.39 243.966 171.134C244.118 170.878 244.194 170.594 244.194 170.282C244.194 169.97 244.118 169.686 243.966 169.43C243.818 169.174 243.616 168.97 243.36 168.818C243.104 168.666 242.82 168.59 242.508 168.59C242.196 168.59 241.91 168.666 241.65 168.818C241.394 168.97 241.19 169.174 241.038 169.43C240.886 169.686 240.81 169.97 240.81 170.282C240.81 170.59 240.886 170.872 241.038 171.128C241.19 171.384 241.394 171.59 241.65 171.746C241.906 171.898 242.19 171.974 242.502 171.974ZM249.769 164.36H251.035L248.731 173H247.465L249.769 164.36ZM252.961 172.994L252.967 171.878L256.729 168.506C257.033 168.238 257.239 167.982 257.347 167.738C257.459 167.494 257.515 167.25 257.515 167.006C257.515 166.698 257.447 166.422 257.311 166.178C257.175 165.93 256.987 165.734 256.747 165.59C256.507 165.446 256.231 165.374 255.919 165.374C255.599 165.374 255.313 165.45 255.061 165.602C254.813 165.75 254.619 165.948 254.479 166.196C254.339 166.444 254.271 166.712 254.275 167H252.991C252.991 166.44 253.117 165.95 253.369 165.53C253.625 165.106 253.975 164.776 254.419 164.54C254.863 164.3 255.371 164.18 255.943 164.18C256.487 164.18 256.975 164.304 257.407 164.552C257.839 164.796 258.179 165.132 258.427 165.56C258.679 165.988 258.805 166.476 258.805 167.024C258.805 167.42 258.753 167.756 258.649 168.032C258.545 168.308 258.389 168.564 258.181 168.8C257.973 169.036 257.713 169.292 257.401 169.568L254.497 172.16L254.359 171.8H258.805V172.994H252.961ZM264.27 173V171.494H260.37V170.306L263.178 164.36H264.612L261.804 170.306H264.27V167.966H265.542V170.306H266.4V171.494H265.542V173H264.27Z" fill="white"/>
<path d="M81.2557 55.3636V67H79.1477V55.3636H81.2557ZM83.4474 67V58.2727H85.4134V59.7557H85.5156C85.6974 59.2557 85.9986 58.8655 86.419 58.5852C86.8395 58.3011 87.3414 58.1591 87.9247 58.1591C88.5156 58.1591 89.0137 58.303 89.419 58.5909C89.8281 58.875 90.116 59.2633 90.2827 59.7557H90.3736C90.5668 59.2708 90.8925 58.8845 91.3509 58.5966C91.813 58.3049 92.3603 58.1591 92.9929 58.1591C93.7959 58.1591 94.4512 58.4129 94.9588 58.9205C95.4664 59.428 95.7202 60.1686 95.7202 61.142V67H93.6577V61.4602C93.6577 60.9186 93.5137 60.5227 93.2259 60.2727C92.938 60.0189 92.5857 59.892 92.169 59.892C91.6728 59.892 91.2846 60.0473 91.0043 60.358C90.7277 60.6648 90.5895 61.0644 90.5895 61.5568V67H88.5724V61.375C88.5724 60.9242 88.4361 60.5644 88.1634 60.2955C87.8944 60.0265 87.5421 59.892 87.1065 59.892C86.8111 59.892 86.5421 59.9678 86.2997 60.1193C86.0573 60.267 85.8641 60.4773 85.7202 60.75C85.5762 61.0189 85.5043 61.3333 85.5043 61.6932V67H83.4474ZM100.318 67.1761C99.7652 67.1761 99.267 67.0777 98.8239 66.8807C98.3845 66.6799 98.036 66.3845 97.7784 65.9943C97.5246 65.6042 97.3977 65.1231 97.3977 64.5511C97.3977 64.0587 97.4886 63.6515 97.6705 63.3295C97.8523 63.0076 98.1004 62.75 98.4148 62.5568C98.7292 62.3636 99.0833 62.2178 99.4773 62.1193C99.875 62.017 100.286 61.9432 100.71 61.8977C101.222 61.8447 101.636 61.7973 101.955 61.7557C102.273 61.7102 102.504 61.642 102.648 61.5511C102.795 61.4564 102.869 61.3106 102.869 61.1136V61.0795C102.869 60.6515 102.742 60.3201 102.489 60.0852C102.235 59.8504 101.869 59.733 101.392 59.733C100.888 59.733 100.489 59.8428 100.193 60.0625C99.9015 60.2822 99.7045 60.5417 99.6023 60.8409L97.6818 60.5682C97.8333 60.0379 98.0833 59.5947 98.4318 59.2386C98.7803 58.8788 99.2064 58.6098 99.7102 58.4318C100.214 58.25 100.771 58.1591 101.381 58.1591C101.801 58.1591 102.22 58.2083 102.636 58.3068C103.053 58.4053 103.434 58.5682 103.778 58.7955C104.123 59.0189 104.4 59.3239 104.608 59.7102C104.82 60.0966 104.926 60.5795 104.926 61.1591V67H102.949V65.8011H102.881C102.756 66.0436 102.58 66.2708 102.352 66.483C102.129 66.6913 101.847 66.8598 101.506 66.9886C101.169 67.1136 100.773 67.1761 100.318 67.1761ZM100.852 65.6648C101.265 65.6648 101.623 65.5833 101.926 65.4205C102.229 65.2538 102.462 65.0341 102.625 64.7614C102.792 64.4886 102.875 64.1913 102.875 63.8693V62.8409C102.811 62.8939 102.701 62.9432 102.545 62.9886C102.394 63.0341 102.223 63.0739 102.034 63.108C101.845 63.142 101.657 63.1723 101.472 63.1989C101.286 63.2254 101.125 63.2481 100.989 63.267C100.682 63.3087 100.407 63.3769 100.165 63.4716C99.9223 63.5663 99.7311 63.6989 99.5909 63.8693C99.4508 64.036 99.3807 64.2519 99.3807 64.517C99.3807 64.8958 99.5189 65.1818 99.7955 65.375C100.072 65.5682 100.424 65.6648 100.852 65.6648ZM110.79 70.4545C110.051 70.4545 109.417 70.3542 108.886 70.1534C108.356 69.9564 107.93 69.6913 107.608 69.358C107.286 69.0246 107.062 68.6553 106.938 68.25L108.79 67.8011C108.873 67.9716 108.994 68.1402 109.153 68.3068C109.313 68.4773 109.527 68.6174 109.795 68.7273C110.068 68.8409 110.411 68.8977 110.824 68.8977C111.407 68.8977 111.89 68.7557 112.273 68.4716C112.655 68.1913 112.847 67.7292 112.847 67.0852V65.4318H112.744C112.638 65.6439 112.483 65.8617 112.278 66.0852C112.078 66.3087 111.811 66.4962 111.477 66.6477C111.148 66.7992 110.733 66.875 110.233 66.875C109.562 66.875 108.955 66.7178 108.409 66.4034C107.867 66.0852 107.436 65.6117 107.114 64.983C106.795 64.3504 106.636 63.5587 106.636 62.608C106.636 61.6496 106.795 60.8409 107.114 60.1818C107.436 59.5189 107.869 59.017 108.415 58.6761C108.96 58.3314 109.568 58.1591 110.239 58.1591C110.75 58.1591 111.17 58.2462 111.5 58.4205C111.833 58.5909 112.098 58.7973 112.295 59.0398C112.492 59.2784 112.642 59.5038 112.744 59.7159H112.858V58.2727H114.886V67.142C114.886 67.8883 114.708 68.5057 114.352 68.9943C113.996 69.483 113.509 69.8485 112.892 70.0909C112.275 70.3333 111.574 70.4545 110.79 70.4545ZM110.807 65.2614C111.242 65.2614 111.614 65.1553 111.92 64.9432C112.227 64.7311 112.46 64.4261 112.619 64.0284C112.778 63.6307 112.858 63.1534 112.858 62.5966C112.858 62.0473 112.778 61.5663 112.619 61.1534C112.464 60.7405 112.233 60.4205 111.926 60.1932C111.623 59.9621 111.25 59.8466 110.807 59.8466C110.348 59.8466 109.966 59.9659 109.659 60.2045C109.352 60.4432 109.121 60.7708 108.966 61.1875C108.811 61.6004 108.733 62.0701 108.733 62.5966C108.733 63.1307 108.811 63.5985 108.966 64C109.125 64.3977 109.358 64.7083 109.665 64.9318C109.975 65.1515 110.356 65.2614 110.807 65.2614ZM116.994 67V58.2727H119.051V67H116.994ZM118.028 57.0341C117.703 57.0341 117.422 56.9261 117.188 56.7102C116.953 56.4905 116.835 56.2273 116.835 55.9205C116.835 55.6098 116.953 55.3466 117.188 55.1307C117.422 54.911 117.703 54.8011 118.028 54.8011C118.358 54.8011 118.638 54.911 118.869 55.1307C119.104 55.3466 119.222 55.6098 119.222 55.9205C119.222 56.2273 119.104 56.4905 118.869 56.7102C118.638 56.9261 118.358 57.0341 118.028 57.0341ZM123.223 61.8864V67H121.166V58.2727H123.132V59.7557H123.234C123.435 59.267 123.755 58.8788 124.195 58.5909C124.638 58.303 125.185 58.1591 125.837 58.1591C126.439 58.1591 126.964 58.2879 127.411 58.5455C127.861 58.803 128.21 59.1761 128.456 59.6648C128.706 60.1534 128.829 60.7462 128.825 61.4432V67H126.768V61.7614C126.768 61.178 126.617 60.7216 126.314 60.392C126.015 60.0625 125.6 59.8977 125.07 59.8977C124.71 59.8977 124.39 59.9773 124.109 60.1364C123.833 60.2917 123.615 60.517 123.456 60.8125C123.301 61.108 123.223 61.4659 123.223 61.8864ZM130.916 67V58.2727H132.973V67H130.916ZM131.95 57.0341C131.625 57.0341 131.344 56.9261 131.109 56.7102C130.875 56.4905 130.757 56.2273 130.757 55.9205C130.757 55.6098 130.875 55.3466 131.109 55.1307C131.344 54.911 131.625 54.8011 131.95 54.8011C132.28 54.8011 132.56 54.911 132.791 55.1307C133.026 55.3466 133.143 55.6098 133.143 55.9205C133.143 56.2273 133.026 56.4905 132.791 56.7102C132.56 56.9261 132.28 57.0341 131.95 57.0341Z" fill="white"/>
<g clip-path="url(#clip0_50_2537)">
<path d="M349.143 53.2857C351.024 56.5433 352.014 60.2385 352.014 64C352.014 67.7615 351.024 71.4567 349.143 74.7143M344.429 55.6429C345.896 58.1838 346.668 61.066 346.668 64C346.668 66.934 345.896 69.8163 344.429 72.3571M339.929 57.8071C340.989 59.664 341.548 61.7702 341.548 63.9143C341.548 66.0583 340.989 68.1646 339.929 70.0214M335.429 60.1429C336.193 61.2998 336.598 62.6362 336.598 64C336.598 65.3638 336.193 66.7002 335.429 67.8571" stroke="white" stroke-width="2.57143" stroke-linecap="round"/>
</g>
</g>
<defs>
<filter id="filter0_bd_50_2537" x="46" y="20" width="352" height="228" filterUnits="userSpaceOnUse" color-interpolation-filters="sRGB">
<feFlood flood-opacity="0" result="BackgroundImageFix"/>
<feGaussianBlur in="BackgroundImageFix" stdDeviation="6"/>
<feComposite in2="SourceAlpha" operator="in" result="effect1_backgroundBlur_50_2537"/>
<feColorMatrix in="SourceAlpha" type="matrix" values="0 0 0 0 0 0 0 0 0 0 0 0 0 0 0 0 0 0 127 0" result="hardAlpha"/>
<feOffset dx="8" dy="10"/>
<feGaussianBlur stdDeviation="8"/>
<feColorMatrix type="matrix" values="0 0 0 0 0 0 0 0 0 0 0 0 0 0 0 0 0 0 0.05 0"/>
<feBlend mode="normal" in2="effect1_backgroundBlur_50_2537" result="effect2_dropShadow_50_2537"/>
<feBlend mode="normal" in="SourceGraphic" in2="effect2_dropShadow_50_2537" result="shape"/>
</filter>
<linearGradient id="paint0_linear_50_2537" x1="432" y1="254" x2="432" y2="0" gradientUnits="userSpaceOnUse">
<stop stop-color="#9B23EA"/>
<stop offset="1" stop-color="#5F72BD"/>
</linearGradient>
<linearGradient id="paint1_linear_50_2537" x1="73.7873" y1="32" x2="399.34" y2="260.824" gradientUnits="userSpaceOnUse">
<stop stop-color="white" stop-opacity="0.51"/>
<stop offset="1" stop-color="white" stop-opacity="0"/>
</linearGradient>
<linearGradient id="paint2_linear_50_2537" x1="58" y1="40.023" x2="366.782" y2="233.518" gradientUnits="userSpaceOnUse">
<stop stop-color="white"/>
<stop offset="1" stop-color="white" stop-opacity="0.2"/>
</linearGradient>
<clipPath id="clip0_50_2537">
<rect width="20" height="24" fill="white" transform="translate(334 52)"/>
</clipPath>
</defs>
</svg>
