<svg width="84" height="36" viewBox="0 0 84 36" fill="none" xmlns="http://www.w3.org/2000/svg">
<g clip-path="url(#clip0_401_6503)">
<path d="M82.9256 14.0225C82.5423 14.4058 82.067 14.5974 81.5004 14.5974C80.9331 14.5974 80.4541 14.4058 80.0628 14.0225C79.6795 13.6391 79.4875 13.168 79.4875 12.609C79.4875 12.05 79.6795 11.5789 80.0628 11.1956C80.4541 10.8123 80.9331 10.6206 81.5004 10.6206C82.067 10.6206 82.5423 10.8123 82.9256 11.1956C83.3169 11.5789 83.5126 12.05 83.5126 12.609C83.5126 13.168 83.3169 13.6391 82.9256 14.0225ZM79.907 28.9474V16.4421H83.0931V28.9474H79.907Z" fill="black"/>
<path d="M72.1693 16.1426C73.6467 16.1426 74.8285 16.5858 75.7147 17.4722C76.6089 18.3506 77.0566 19.5244 77.0566 20.9937V28.9474H73.8583V22.0239C73.8583 21.1774 73.6069 20.5027 73.1033 19.9996C72.6084 19.4885 71.9455 19.233 71.1151 19.233C70.2448 19.233 69.5377 19.4965 68.9949 20.0235C68.4601 20.5426 68.1921 21.2294 68.1921 22.0838V28.9474H65.0061V16.442H68.1921V17.8315C69.1985 16.7056 70.5239 16.1426 72.1693 16.1426Z" fill="black"/>
<path d="M58.7773 28.9472V16.4419H61.9635V28.9472H58.7773Z" fill="black"/>
<path d="M52.8841 28.9472C54.1298 28.9472 55.1639 29.2706 55.9865 29.9175C56.8169 30.5723 57.336 31.4747 57.5436 32.6246L54.2496 33.511C54.2017 33.0558 53.9981 32.6925 53.6387 32.421C53.2793 32.1495 52.8202 32.0137 52.2612 32.0137H48.1646C46.9987 32.0137 46.0605 31.7062 45.3497 31.0913C44.647 30.4765 44.2957 29.6699 44.2957 28.6717C44.2957 28.0329 44.4474 27.43 44.7508 26.863C45.0623 26.296 45.4735 25.8528 45.9846 25.5334C44.8746 24.4953 44.3196 23.1977 44.3196 21.6405C44.3196 20.0673 44.8746 18.7577 45.9846 17.7116C47.1026 16.6655 48.5 16.1425 50.177 16.1425C51.1432 16.1425 52.0536 16.3381 52.908 16.7294C53.0917 16.0506 53.467 15.5196 54.034 15.1363C54.6089 14.745 55.3037 14.5493 56.1182 14.5493H57.1483V17.496H56.2619C55.9425 17.496 55.663 17.5758 55.4235 17.7356C55.1919 17.8953 55.0481 18.1148 54.9923 18.3944C55.7109 19.3287 56.0703 20.4107 56.0703 21.6405C56.0703 23.2056 55.5073 24.5113 54.3814 25.5574C53.2554 26.6035 51.8539 27.1265 50.177 27.1265C49.4902 27.1265 48.8034 27.0227 48.1167 26.8151C47.6935 27.0706 47.4819 27.43 47.4819 27.8931C47.4819 28.1966 47.6056 28.4481 47.8532 28.6478C48.1007 28.8474 48.4201 28.9472 48.8114 28.9472H52.8841ZM50.177 19.161C49.4263 19.161 48.8034 19.3966 48.3083 19.8677C47.8213 20.3388 47.5777 20.9298 47.5777 21.6405C47.5777 22.3512 47.8213 22.9421 48.3083 23.4133C48.8034 23.8844 49.4263 24.12 50.177 24.12C50.9196 24.12 51.5385 23.8844 52.0336 23.4133C52.5287 22.9421 52.7763 22.3512 52.7763 21.6405C52.7763 20.9298 52.5287 20.3388 52.0336 19.8677C51.5385 19.3966 50.9196 19.161 50.177 19.161Z" fill="black"/>
<path d="M38.7138 16.442H41.9V28.9474H38.7138V27.4501C37.6197 28.6479 36.2622 29.2468 34.6412 29.2468C32.9003 29.2468 31.4469 28.6199 30.2811 27.3662C29.1152 26.1125 28.5322 24.5553 28.5322 22.6947C28.5322 20.834 29.1152 19.2769 30.2811 18.0232C31.4469 16.7694 32.9003 16.1426 34.6412 16.1426C36.2702 16.1426 37.6278 16.7375 38.7138 17.9273V16.442ZM35.2521 26.1564C36.2423 26.1564 37.0648 25.825 37.7196 25.1622C38.3824 24.4994 38.7138 23.6769 38.7138 22.6947C38.7138 21.7125 38.3824 20.89 37.7196 20.2271C37.0648 19.5644 36.2423 19.233 35.2521 19.233C34.2698 19.233 33.4513 19.5644 32.7965 20.2271C32.1417 20.89 31.8143 21.7125 31.8143 22.6947C31.8143 23.6769 32.1417 24.4994 32.7965 25.1622C33.4513 25.825 34.2698 26.1564 35.2521 26.1564Z" fill="black"/>
<path d="M21.7286 16.1426C23.1421 16.1426 24.272 16.5658 25.1185 17.4123C25.973 18.2587 26.4002 19.3887 26.4002 20.8022V28.9474H23.2019V21.7604C23.2019 20.9937 22.9783 20.3829 22.5312 19.9277C22.0919 19.4646 21.501 19.233 20.7584 19.233C19.9758 19.233 19.341 19.4686 18.8539 19.9397C18.3667 20.4108 18.1232 21.0337 18.1232 21.8083V28.9474H14.937V21.7604C14.937 21.0018 14.7094 20.3909 14.2542 19.9277C13.807 19.4646 13.2081 19.233 12.4574 19.233C11.6829 19.233 11.052 19.4725 10.5649 19.9516C10.0778 20.4228 9.83423 21.0417 9.83423 21.8083V28.9474H6.64795V16.442H9.83423V17.7357C10.7765 16.6736 12.0102 16.1426 13.5355 16.1426C14.4059 16.1426 15.1765 16.3223 15.8473 16.6816C16.5261 17.0329 17.0651 17.532 17.4644 18.1789C18.4945 16.8214 19.9159 16.1426 21.7286 16.1426Z" fill="black"/>
<path d="M3.43777 14.0225C3.05446 14.4058 2.57932 14.5974 2.01235 14.5974C1.44538 14.5974 0.966247 14.4058 0.574957 14.0225C0.191652 13.6391 0 13.168 0 12.609C0 12.05 0.191652 11.5789 0.574957 11.1956C0.966247 10.8123 1.44538 10.6206 2.01235 10.6206C2.57932 10.6206 3.05446 10.8123 3.43777 11.1956C3.82906 11.5789 4.0247 12.05 4.0247 12.609C4.0247 13.168 3.82906 13.6391 3.43777 14.0225ZM0.41924 28.9474V16.4421H3.60546V28.9474H0.41924Z" fill="black"/>
<path d="M52.75 4.58451C52.5794 4.65098 52.5794 4.68538 52.75 4.75186L55.7104 5.77607C55.9193 5.85745 56.105 6.04203 56.187 6.24934L57.2002 9.19496C57.2671 9.36429 57.2989 9.36429 57.3659 9.19496L58.3791 6.24934C58.4611 6.04203 58.6468 5.85745 58.8557 5.77607L61.8158 4.75186C61.9869 4.68538 61.9869 4.65098 61.8158 4.58451L58.8589 3.60256C58.6481 3.52047 58.4614 3.33378 58.3801 3.1241L57.3659 0.128319C57.2996 -0.0427729 57.2665 -0.0427729 57.2002 0.128319L56.1859 3.1241C56.1047 3.33378 55.918 3.52047 55.7072 3.60255L52.75 4.58451Z" fill="#F70FB6"/>
<path d="M61.6771 8.28045C61.5422 8.33295 61.5422 8.36012 61.6771 8.41261L64.0144 9.22117C64.1793 9.28545 64.3259 9.43116 64.3903 9.59485L65.19 11.9203C65.2434 12.054 65.2685 12.054 65.3213 11.9203L66.121 9.59485C66.186 9.43116 66.3326 9.28545 66.4976 9.22117L68.8342 8.41261C68.9691 8.36012 68.9691 8.33295 68.8342 8.28045L66.5 7.50525C66.3332 7.44043 66.186 7.29306 66.1216 7.12753L65.3213 4.76244C65.2685 4.62737 65.2428 4.62737 65.19 4.76244L64.3897 7.12753C64.3253 7.29306 64.1781 7.44043 64.0119 7.50525L61.6771 8.28045Z" fill="#066FEF"/>
<path d="M57.3671 12.583C57.2549 12.6268 57.2549 12.6494 57.3671 12.6931L59.3147 13.3669C59.4522 13.4205 59.5744 13.5419 59.6283 13.6783L60.2948 15.6162C60.3389 15.7276 60.3599 15.7276 60.4039 15.6162L61.0705 13.6783C61.1244 13.5419 61.2466 13.4205 61.3839 13.3669L63.3317 12.6931C63.444 12.6494 63.444 12.6268 63.3317 12.583L61.3864 11.937C61.2475 11.883 61.1246 11.7602 61.0711 11.6222L60.4039 9.65134C60.3603 9.53874 60.3385 9.53874 60.2948 9.65134L59.6276 11.6222C59.5741 11.7602 59.4513 11.883 59.3127 11.937L57.3671 12.583Z" fill="#02F2DA"/>
<path fill-rule="evenodd" clip-rule="evenodd" d="M73.3265 35.9384H74.2041V31.4639H73.3265V35.9384ZM61.5925 35.9384H62.4817V31.7347H61.5925V33.3832H59.9266V31.7347H59.0376V35.9384H59.9266V34.125H61.5925V35.9384ZM66.5012 32.8357C66.289 32.7218 66.0339 32.6649 65.7358 32.6649C65.4335 32.6649 65.1685 32.7277 64.941 32.8533C64.7129 32.9789 64.5344 33.1673 64.405 33.4185C64.2793 33.6658 64.2167 33.9779 64.2167 34.3547C64.2167 34.7236 64.2872 35.0298 64.4283 35.2731C64.57 35.5165 64.7644 35.699 65.0115 35.8207C65.2587 35.9384 65.5433 35.9973 65.8652 35.9973C66.1124 35.9973 66.3221 35.9777 66.4951 35.9384C66.6717 35.9031 66.8385 35.8462 66.9955 35.7677V35.0906C66.8152 35.177 66.6404 35.2417 66.4718 35.2849C66.3025 35.3241 66.1142 35.3438 65.9063 35.3438C65.6592 35.3438 65.4648 35.2731 65.3237 35.1318C65.1863 34.9905 65.1133 34.7962 65.1054 34.549H67.1783V34.125C67.1783 33.811 67.1194 33.5461 67.0017 33.3302C66.8839 33.1143 66.7171 32.9495 66.5012 32.8357ZM65.3176 33.4539C65.4316 33.344 65.5727 33.289 65.7413 33.289C65.8787 33.289 65.9928 33.3185 66.083 33.3773C66.1731 33.4362 66.24 33.5167 66.2829 33.6187C66.3301 33.7208 66.354 33.8366 66.354 33.9661H65.1232C65.1428 33.7345 65.2078 33.5638 65.3176 33.4539ZM70.1503 32.659C70.582 32.659 70.9114 32.7532 71.1395 32.9416C71.3707 33.1261 71.4866 33.4107 71.4866 33.7953V35.9384H70.8746L70.7035 35.5027H70.6802C70.59 35.6166 70.4956 35.7108 70.3974 35.7853C70.303 35.8599 70.1932 35.9129 70.0675 35.9443C69.9461 35.9796 69.7952 35.9973 69.6143 35.9973C69.426 35.9973 69.2555 35.962 69.1022 35.8913C68.9531 35.8167 68.8354 35.7049 68.7489 35.5557C68.6624 35.4026 68.6195 35.2103 68.6195 34.9787C68.6195 34.6373 68.7391 34.3861 68.9783 34.2251C69.2181 34.0603 69.5769 33.97 70.0558 33.9543L70.6152 33.9366V33.7953C70.6152 33.6266 70.5704 33.5029 70.4796 33.4244C70.3938 33.3459 70.2717 33.3067 70.1147 33.3067C69.9577 33.3067 69.805 33.3302 69.6554 33.3773C69.5063 33.4205 69.3573 33.4755 69.2083 33.5422L68.9194 32.9475C69.0924 32.8573 69.2825 32.7866 69.491 32.7356C69.7026 32.6846 69.9227 32.659 70.1503 32.659ZM70.2736 34.4606C69.9914 34.4685 69.7952 34.5195 69.6848 34.6137C69.575 34.7079 69.5204 34.8316 69.5204 34.9846C69.5204 35.1181 69.5597 35.2142 69.6382 35.2731C69.7167 35.3281 69.8185 35.3555 69.9442 35.3555C70.1325 35.3555 70.2913 35.3006 70.4207 35.1907C70.5508 35.0769 70.6152 34.9179 70.6152 34.7138V34.4489L70.2736 34.4606ZM77.4165 35.2967C77.5146 35.2967 77.6091 35.2869 77.6992 35.2672C77.7894 35.2476 77.8795 35.2241 77.9703 35.1966V35.8501C77.8759 35.8894 77.7581 35.9227 77.6171 35.9502C77.4797 35.9816 77.3282 35.9973 77.1632 35.9973C76.9713 35.9973 76.7983 35.9659 76.6456 35.9031C76.496 35.8403 76.3764 35.7324 76.2862 35.5793C76.1998 35.4223 76.1568 35.2064 76.1568 34.9316V33.3832H75.7386V33.0123L76.2212 32.7179L76.4745 32.0408H77.0338V32.7238H77.9347V33.3832H77.0338V34.9316C77.0338 35.0533 77.0694 35.1456 77.1399 35.2084C77.2105 35.2672 77.3031 35.2967 77.4165 35.2967ZM80.4167 32.8298C80.4284 32.6846 80.4345 32.5334 80.4345 32.3764V31.4639H79.5575V35.9384H80.4345V34.4253C80.4345 34.1977 80.456 34.0053 80.4995 33.8483C80.5424 33.6913 80.613 33.5716 80.7111 33.4892C80.8135 33.4068 80.9527 33.3656 81.1294 33.3656C81.306 33.3656 81.4354 33.4244 81.5176 33.5422C81.604 33.656 81.6476 33.8287 81.6476 34.0603V35.9384H82.5246V33.8424C82.5246 33.5677 82.4755 33.344 82.3774 33.1713C82.283 32.9986 82.1499 32.871 81.9769 32.7886C81.8046 32.7061 81.6022 32.6649 81.3704 32.6649C81.241 32.6649 81.1177 32.6826 81 32.7179C80.8859 32.7493 80.7816 32.8003 80.6878 32.871C80.5933 32.9377 80.5112 33.026 80.4406 33.1359H80.3934C80.4014 33.0771 80.4087 32.975 80.4167 32.8298ZM52.3134 34.9572C52.8554 34.9572 53.2947 34.5179 53.2947 33.976C53.2947 33.434 52.8554 32.9947 52.3134 32.9947H1.04254C0.500605 32.9947 0.0612793 33.434 0.0612793 33.976C0.0612793 34.5179 0.500605 34.9572 1.04254 34.9572H52.3134Z" fill="url(#paint0_linear_401_6503)"/>
</g>
<defs>
<linearGradient id="paint0_linear_401_6503" x1="1.04253" y1="33.9453" x2="83.0391" y2="33.9453" gradientUnits="userSpaceOnUse">
<stop stop-color="#02F2DA"/>
<stop offset="0.40401" stop-color="#066FEF"/>
<stop offset="0.909421" stop-color="#F60FB6"/>
</linearGradient>
<clipPath id="clip0_401_6503">
<rect width="83.5298" height="36" fill="white"/>
</clipPath>
</defs>
</svg>
