<svg width="101" height="33" viewBox="0 0 101 33" fill="none" xmlns="http://www.w3.org/2000/svg">
<path d="M6.58903 10.5416C6.13502 10.5416 5.75668 10.3948 5.45401 10.101C5.15134 9.79831 5 9.42442 5 8.97932C5 8.52531 5.15134 8.15142 5.45401 7.85765C5.75668 7.56388 6.13502 7.41699 6.58903 7.41699C7.03413 7.41699 7.40357 7.56388 7.69734 7.85765C7.99111 8.15142 8.138 8.52531 8.138 8.97932C8.138 9.42442 7.98666 9.79831 7.68399 10.101C7.39022 10.3948 7.02523 10.5416 6.58903 10.5416ZM5.41395 27.2732V13.3325H7.76411V27.2732H5.41395Z" fill="white"/>
<path d="M28.3948 12.9986C29.9972 12.9986 31.2746 13.4793 32.2271 14.4408C33.1886 15.3933 33.6693 16.6707 33.6693 18.2731V27.2732H31.3191V18.9274C31.3191 17.8147 30.9853 16.9289 30.3176 16.2702C29.6589 15.6025 28.7776 15.2687 27.6737 15.2687C26.5342 15.2687 25.6173 15.6069 24.923 16.2835C24.2286 16.9601 23.8814 17.8592 23.8814 18.9808V27.2732H21.5312V18.9274C21.5312 17.8147 21.1974 16.9289 20.5298 16.2702C19.871 15.6025 18.9897 15.2687 17.8858 15.2687C16.7464 15.2687 15.8294 15.6069 15.1351 16.2835C14.4407 16.9601 14.0935 17.8592 14.0935 18.9808V27.2732H11.7434V13.3325H14.0935V15.2153C15.1529 13.7375 16.6751 12.9986 18.6603 12.9986C19.7464 12.9986 20.6944 13.239 21.5045 13.7197C22.3146 14.2004 22.9244 14.8725 23.3339 15.736C23.8591 14.8547 24.5535 14.1782 25.417 13.7063C26.2894 13.2345 27.282 12.9986 28.3948 12.9986Z" fill="white"/>
<path d="M48.9987 13.3325H51.3489V27.2732H48.9987V24.7628C48.4023 25.653 47.6323 26.3518 46.6886 26.8592C45.7539 27.3577 44.7168 27.607 43.5773 27.607C42.2687 27.607 41.0803 27.291 40.012 26.6589C38.9438 26.018 38.107 25.1411 37.5016 24.0284C36.9052 22.9067 36.607 21.6648 36.607 20.3028C36.607 18.9408 36.9052 17.7034 37.5016 16.5906C38.107 15.469 38.9438 14.5921 40.012 13.9601C41.0803 13.3191 42.2687 12.9986 43.5773 12.9986C44.7168 12.9986 45.7539 13.2523 46.6886 13.7598C47.6323 14.2583 48.4023 14.9526 48.9987 15.8429V13.3325ZM44.018 25.337C45.4423 25.337 46.6263 24.8563 47.57 23.8948C48.5225 22.9334 48.9987 21.7361 48.9987 20.3028C48.9987 18.8696 48.5225 17.6722 47.57 16.7108C46.6263 15.7494 45.4423 15.2687 44.018 15.2687C42.5848 15.2687 41.3919 15.7494 40.4394 16.7108C39.4868 17.6722 39.0106 18.8696 39.0106 20.3028C39.0106 21.7361 39.4868 22.9334 40.4394 23.8948C41.3919 24.8563 42.5848 25.337 44.018 25.337Z" fill="white"/>
<path d="M64.1279 27.6337C65.4543 27.6337 66.5448 27.9675 67.3994 28.6352C68.254 29.3029 68.7481 30.2153 68.8816 31.3726L66.4514 32.0002C66.4246 31.3771 66.1576 30.8741 65.6502 30.4913C65.1516 30.1174 64.5062 29.9305 63.7139 29.9305H58.573C57.4157 29.9305 56.4765 29.6233 55.7555 29.0091C55.0433 28.3948 54.6872 27.5981 54.6872 26.6189C54.6872 25.9601 54.8385 25.3459 55.1412 24.7761C55.4528 24.1975 55.8756 23.7613 56.4098 23.4675C55.8044 22.9067 55.3326 22.2479 54.9943 21.4912C54.6649 20.7346 54.5003 19.92 54.5003 19.0476C54.5003 17.3206 55.1056 15.8829 56.3163 14.7345C57.5359 13.5773 59.0537 12.9986 60.8697 12.9986C62.1071 12.9986 63.2466 13.3013 64.2881 13.9066C64.4217 13.1678 64.7733 12.5802 65.343 12.144C65.9128 11.7078 66.6205 11.4897 67.4662 11.4897H68.5344V13.6796H67.5997C67.0923 13.6796 66.6784 13.8221 66.3579 14.1069C66.0463 14.3829 65.8861 14.7523 65.8772 15.2153C66.7852 16.2924 67.2392 17.5699 67.2392 19.0476C67.2392 20.7657 66.6294 22.2079 65.4098 23.374C64.1902 24.5313 62.6769 25.11 60.8697 25.11C59.7748 25.11 58.7911 24.8919 57.9187 24.4557C57.6427 24.6337 57.4246 24.8652 57.2644 25.15C57.113 25.426 57.0374 25.7153 57.0374 26.018C57.0374 26.5076 57.2199 26.8993 57.5848 27.1931C57.9498 27.4868 58.4261 27.6337 59.0136 27.6337H64.1279ZM60.8697 15.242C59.7392 15.242 58.8 15.6069 58.0522 16.3369C57.3044 17.058 56.9305 17.9616 56.9305 19.0476C56.9305 20.1426 57.3044 21.055 58.0522 21.785C58.8089 22.5061 59.7481 22.8666 60.8697 22.8666C61.9914 22.8666 62.9261 22.5061 63.6739 21.785C64.4306 21.055 64.8089 20.1426 64.8089 19.0476C64.8089 17.9616 64.4306 17.058 63.6739 16.3369C62.9261 15.6069 61.9914 15.242 60.8697 15.242Z" fill="white"/>
<path d="M70.711 27.2732V13.3325H73.0612V27.2732H70.711Z" fill="white"/>
<path d="M84.4114 12.9986C86.1117 12.9986 87.4782 13.5149 88.5108 14.5476C89.5524 15.5802 90.0731 16.9512 90.0731 18.6604V27.2732H87.723V19.3948C87.723 18.1485 87.3535 17.1515 86.6147 16.4037C85.8758 15.647 84.8876 15.2687 83.6503 15.2687C82.3594 15.2687 81.3268 15.6515 80.5523 16.417C79.7778 17.1826 79.3906 18.193 79.3906 19.4482V27.2732H77.0404V13.3325H79.3906V15.4556C80.5212 13.8176 82.1948 12.9986 84.4114 12.9986Z" fill="white"/>
<path d="M95.0672 10.5416C94.6132 10.5416 94.2349 10.3948 93.9322 10.101C93.6295 9.79831 93.4782 9.42442 93.4782 8.97932C93.4782 8.52531 93.6295 8.15142 93.9322 7.85765C94.2349 7.56388 94.6132 7.41699 95.0672 7.41699C95.5123 7.41699 95.8818 7.56388 96.1755 7.85765C96.4693 8.15142 96.6162 8.52531 96.6162 8.97932C96.6162 9.42442 96.4649 9.79831 96.1622 10.101C95.8684 10.3948 95.5034 10.5416 95.0672 10.5416ZM93.8921 27.2732V13.3325H96.2423V27.2732H93.8921Z" fill="white"/>
<path d="M71.8922 12.254C71.9038 12.2875 71.9511 12.2875 71.9627 12.254L72.3904 11.0177C72.4141 10.9493 72.4544 10.887 72.508 10.836C72.5617 10.7851 72.6271 10.7468 72.6992 10.7242L73.993 10.3197C74.0279 10.3088 74.0279 10.2594 73.993 10.2485L72.6992 9.84396C72.6271 9.82143 72.5617 9.78314 72.508 9.73216C72.4544 9.68118 72.4141 9.61894 72.3904 9.55045L71.9627 8.31416C71.9511 8.2807 71.9038 8.2807 71.8922 8.31416L71.4644 9.55045C71.4407 9.61894 71.4005 9.68118 71.3468 9.73216C71.2932 9.78314 71.2277 9.82143 71.1557 9.84396L69.8619 10.2485C69.827 10.2594 69.827 10.3088 69.8619 10.3197L71.1557 10.7242C71.2277 10.7468 71.2932 10.7851 71.3468 10.836C71.4005 10.887 71.4407 10.9493 71.4644 11.0177L71.8922 12.254Z" fill="#0BA5EC"/>
<path d="M75.1359 8.44421C75.1475 8.47749 75.1946 8.47749 75.2062 8.44421L75.818 6.69782C75.8511 6.6033 75.9074 6.5174 75.9823 6.44704C76.0572 6.37668 76.1487 6.32383 76.2494 6.29274L78.1009 5.7209C78.1359 5.71008 78.1359 5.66046 78.1009 5.64964L76.2494 5.0778C76.1487 5.04671 76.0572 4.99386 75.9823 4.9235C75.9074 4.85314 75.8511 4.76724 75.818 4.67272L75.2062 2.92633C75.1946 2.89305 75.1475 2.89305 75.1359 2.92633L74.5241 4.67272C74.491 4.76724 74.4347 4.85314 74.3598 4.9235C74.2849 4.99386 74.1934 5.04671 74.0927 5.0778L72.2413 5.64964C72.2062 5.66046 72.2062 5.71008 72.2413 5.7209L74.0927 6.29274C74.1934 6.32383 74.2849 6.37668 74.3598 6.44704C74.4347 6.5174 74.491 6.6033 74.5241 6.69782L75.1359 8.44421Z" fill="#6172F3"/>
<path d="M69.3168 6.45589C69.3285 6.48902 69.3753 6.48902 69.3871 6.45589L70.1095 4.4142C70.1483 4.30462 70.2142 4.20504 70.302 4.12347C70.3898 4.04191 70.4969 3.98064 70.6148 3.94459L72.8016 3.27603C72.8367 3.26528 72.8367 3.21546 72.8016 3.20471L70.6148 2.53615C70.4969 2.5001 70.3898 2.43883 70.302 2.35727C70.2142 2.2757 70.1483 2.17612 70.1095 2.06654L69.3871 0.0248515C69.3753 -0.00828373 69.3285 -0.00828387 69.3168 0.0248513L68.5943 2.06654C68.5555 2.17612 68.4896 2.2757 68.4018 2.35727C68.3141 2.43883 68.2069 2.5001 68.089 2.53615L65.9022 3.20471C65.8671 3.21546 65.8671 3.26528 65.9022 3.27603L68.089 3.94459C68.2069 3.98064 68.3141 4.04191 68.4018 4.12347C68.4896 4.20504 68.5555 4.30462 68.5943 4.4142L69.3168 6.45589Z" fill="#079455"/>
</svg>
