<svg width="92" height="64"  viewBox="0 0 92 64" fill="none" xmlns="http://www.w3.org/2000/svg">
<path d="M0.5 4C0.5 2.067 2.067 0.5 4 0.5H42C43.933 0.5 45.5 2.067 45.5 4V28C45.5 29.933 43.933 31.5 42 31.5H4C2.067 31.5 0.5 29.933 0.5 28V4Z" fill="white"/>
<path d="M0.5 4C0.5 2.067 2.067 0.5 4 0.5H42C43.933 0.5 45.5 2.067 45.5 4V28C45.5 29.933 43.933 31.5 42 31.5H4C2.067 31.5 0.5 29.933 0.5 28V4Z" stroke="#EAECF0"/>
<path fill-rule="evenodd" clip-rule="evenodd" d="M22.9053 22.4396C21.3266 23.7704 19.2787 24.5737 17.0409 24.5737C12.0478 24.5737 8 20.5741 8 15.6404C8 10.7066 12.0478 6.70703 17.0409 6.70703C19.2787 6.70703 21.3266 7.51036 22.9053 8.84109C24.484 7.51036 26.5319 6.70703 28.7697 6.70703C33.7628 6.70703 37.8106 10.7066 37.8106 15.6404C37.8106 20.5741 33.7628 24.5737 28.7697 24.5737C26.5319 24.5737 24.484 23.7704 22.9053 22.4396Z" fill="#ED0006"/>
<path fill-rule="evenodd" clip-rule="evenodd" d="M22.9062 22.4396C24.8502 20.8011 26.0828 18.363 26.0828 15.6404C26.0828 12.9178 24.8502 10.4796 22.9062 8.84108C24.485 7.51036 26.5329 6.70703 28.7706 6.70703C33.7638 6.70703 37.8115 10.7066 37.8115 15.6404C37.8115 20.5741 33.7638 24.5737 28.7706 24.5737C26.5329 24.5737 24.485 23.7704 22.9062 22.4396Z" fill="#F9A000"/>
<path fill-rule="evenodd" clip-rule="evenodd" d="M22.907 22.4403C24.8509 20.8018 26.0835 18.3636 26.0835 15.641C26.0835 12.9185 24.8509 10.4803 22.907 8.8418C20.9631 10.4803 19.7305 12.9185 19.7305 15.641C19.7305 18.3636 20.9631 20.8018 22.907 22.4403Z" fill="#FF5E00"/>
</svg>
